<?xml version="1.0" encoding="UTF-8" standalone="no"?>
<svg
   xmlns:dc="http://purl.org/dc/elements/1.1/"
   xmlns:cc="http://creativecommons.org/ns#"
   xmlns:rdf="http://www.w3.org/1999/02/22-rdf-syntax-ns#"
   xmlns:svg="http://www.w3.org/2000/svg"
   xmlns="http://www.w3.org/2000/svg"
   version="1.1"
   id="svg4452"
   viewBox="0 0 210 92"
   height="92mm"
   width="210mm">
  <defs
     id="defs4454" />
  <metadata
     id="metadata4457">
    <rdf:RDF>
      <cc:Work
         rdf:about="">
        <dc:format>image/svg+xml</dc:format>
        <dc:type
           rdf:resource="http://purl.org/dc/dcmitype/StillImage" />
        <dc:title></dc:title>
      </cc:Work>
    </rdf:RDF>
  </metadata>
  <g
     transform="translate(0,-205)"
     id="layer1">
    <path
       d="m 31.309077,243.3437 -9.11291,0 0,8.44021 9.11291,0 0,-8.44021 z m -10.03002,13.2715 c -4.15892,0 -6.78855,1.95726 -6.78855,5.81025 0,3.54707 2.14015,6.11585 7.82836,6.11585 6.11584,0 8.99021,-3.73063 8.99021,-9.41851 l 0,-2.50759 -10.03002,0 z m -4.40333,-18.1643 26.1147,0 0,5.0155 -6.11617,0 0,8.31751 1.52896,0 c 8.13428,0 12.23202,4.5257 12.23202,10.64154 0,6.78855 -5.07636,10.94747 -11.62017,11.06951 l -0.42829,-4.89248 c 4.09773,-0.12237 6.66617,-2.32403 6.66617,-6.17703 0,-3.85299 -2.20133,-5.81025 -6.91058,-5.81025 l -1.46811,0 0,2.56878 c 0,8.25665 -4.83129,14.25012 -14.61691,14.25012 -9.7241,0 -13.4547197,-5.25958 -13.4547197,-10.94746 0,-5.13722 2.7519997,-8.92936 8.0730997,-10.21358 l 0,-13.82216 z"
       style="fill:#ffffff;fill-opacity:1;fill-rule:nonzero;stroke:none;stroke-width:0.33072916"
       id="path4464" />
    <path
       d="m 169.62484,269.14085 c -2.04953,0 -2.79069,-1.46811 -3.04039,-2.26616 0,-0.0351 0.003,-0.0698 0.003,-0.10517 l -0.035,0 c -0.0251,-0.0916 -0.046,-0.17363 -0.0595,-0.23713 l -4.76085,0.0744 c 0,0.0536 0.002,0.10847 0.004,0.16271 l -0.0311,0 c 0,0.96904 -1.50879,2.23706 -2.78441,2.33892 -2.4507,0.19579 -4.87495,-0.52817 -6.48395,-1.93973 -0.83476,-0.73256 -1.46513,-1.63942 -1.82231,-2.62202 -0.3562,-0.98028 -0.4326,-2.05019 -0.21597,-3.01228 0.2583,-1.14631 0.95945,-2.27211 1.97412,-3.17037 0.97797,-0.86585 2.23672,-1.5369 3.74121,-1.99496 2.56613,-0.78118 5.36079,-0.81888 8.32049,-0.85923 0.52718,-0.007 1.05403,-0.0142 1.54715,-0.0251 l 6.24813,-0.0539 c 0.35884,0 0.70578,-2.7e-4 1.04742,0 -0.0129,3.65555 -0.0251,7.86573 -0.0251,9.58751 0,3.58808 -2.27178,4.12353 -3.62645,4.12353 m 29.55198,-7.35608 c -0.22391,-2.20133 -1.13573,-4.36629 -2.56679,-6.096 -1.4648,-1.76907 -3.51268,-3.1621 -5.92369,-4.02861 -1.97545,-0.70975 -4.15495,-1.07421 -6.6632,-1.1139 -2.08393,-0.0327 -3.90327,-0.0308 -5.8473,-0.0218 0.003,-0.84303 0.005,-1.37021 0.005,-1.39667 -0.0103,-3.13399 1.45191,-6.54678 2.86511,-9.84647 0.19414,-0.45144 0.38464,-0.89793 0.57018,-1.33879 l 1.35566,-3.18128 -3.74419,0 c -3.2762,0 -8.40879,-0.003 -10.99377,0.007 l -0.14486,-0.003 c -2.30948,-0.004 -4.0038,-0.18389 -6.10096,0.41936 -1.28223,0.36876 -2.4087,0.94026 -3.34532,1.69631 -1.12779,0.90951 -1.95527,2.07004 -2.39448,3.35789 -0.72595,2.1299 -0.32114,4.56638 1.05469,6.35893 1.35401,1.76345 3.58048,2.7983 5.81323,2.69412 1.81934,-0.0833 3.57121,-0.89826 4.80748,-2.23705 1.23527,-1.33879 1.90831,-3.15052 1.84646,-4.97119 l -4.88024,0.16735 c 0.0182,0.5381 -0.18885,1.09637 -0.5543,1.49159 -0.36513,0.39588 -0.90488,0.64724 -1.44231,0.67171 -0.63434,0.0301 -1.33218,-0.28806 -1.71682,-0.78978 -0.38265,-0.49841 -0.50601,-1.22601 -0.30724,-1.81008 0.13824,-0.40614 0.43656,-0.80797 0.83972,-1.13341 0.42796,-0.34561 0.97631,-0.61615 1.62884,-0.804 1.37947,-0.39721 3.16673,-0.36943 3.16673,-0.36943 l 2.13056,-0.006 c 2.11534,0 4.59151,0.003 7.01741,0.003 -1.2399,3.02088 -2.36504,6.30039 -2.3538,9.62257 0,0.0235 -0.002,0.56124 -0.005,1.42114 -0.35256,0 -0.71239,0 -1.08513,0 l -6.30138,0.0542 c -0.51164,0.0116 -1.02592,0.0182 -1.53987,0.0251 -3.16905,0.043 -6.44691,0.088 -9.67482,1.07024 -2.18017,0.66344 -4.04978,1.6758 -5.55725,3.0103 -1.77535,1.57228 -3.01856,3.61553 -3.49977,5.75303 -0.42631,1.8888 -0.29171,3.87813 0.38993,5.7527 0.63599,1.75254 1.73963,3.35195 3.1912,4.62525 2.34057,2.05416 5.52715,3.18525 8.88603,3.18525 0.40118,0 0.80434,-0.0162 1.20849,-0.0489 1.66687,-0.13328 3.42404,-0.9138 4.79491,-2.12427 1.29778,1.26339 3.13167,2.17256 5.51921,2.17256 4.23565,0 8.50933,-2.78474 8.50933,-9.00642 0,-1.7221 0.0122,-5.94816 0.0245,-9.60999 1.93245,-0.009 3.73526,-0.0112 5.78776,0.0212 1.96222,0.0311 3.62711,0.30129 5.0886,0.82682 1.58783,0.57051 2.90645,1.45124 3.81331,2.54661 0.82153,0.99252 1.34342,2.2278 1.47075,3.47795 0.12799,1.25148 -0.13758,2.54199 -0.74678,3.63372 -0.61615,1.10563 -1.58717,2.01547 -2.73414,2.56315 -1.15888,0.55365 -2.48775,0.73621 -3.74386,0.51164 -1.44925,-0.2583 -2.78507,-1.06395 -3.66547,-2.21059 l -3.87251,2.97425 c 1.6133,2.0998 4.0478,3.57386 6.68073,4.04349 2.25359,0.40085 4.63517,0.0771 6.7062,-0.91314 2.05019,-0.97863 3.78817,-2.60846 4.8938,-4.58986 1.09207,-1.95825 1.56799,-4.27005 1.33978,-6.50776"
       style="fill:#ffffff;fill-opacity:1;fill-rule:nonzero;stroke:none;stroke-width:0.33072916"
       id="path4472" />
    <g
       style="fill:#ffffff"
       transform="matrix(0.33072917,0,0,-0.33072917,81.438946,250.17223)"
       id="g4486">
      <path
         d="m 0,0 c -0.486,1.188 -0.732,2.513 -0.732,3.938 0,2.475 0.709,4.627 2.168,6.582 1.337,1.791 3.123,2.755 5.475,2.95 0.515,0.046 1.006,0.068 1.458,0.068 4.091,0 4.091,-1.701 4.091,-2.944 0,-1.316 -0.411,-2.343 -1.295,-3.232 L 1.124,-2.747 0,0 Z m 23.118,-29.686 0,-12.974 c 0,-4.047 -1.048,-7.162 -3.205,-9.525 -2.095,-2.295 -4.917,-3.412 -8.628,-3.412 -6.363,0 -9.077,2.495 -9.077,8.342 0,0.899 0.098,1.744 0.292,2.514 l 0.075,0.301 0,0.003 c 0.093,0.317 0.338,1.098 0.975,3.01 0.573,1.723 0.863,3.409 0.863,5.015 0,1.463 -0.222,2.94 -0.68,4.466 -0.879,2.636 -2.353,4.597 -4.345,5.818 4.351,4.629 7.762,8.225 10.357,10.918 4.213,4.214 7.326,7.206 9.251,8.892 l 0.09,0.083 c 3.222,3.113 7.342,4.627 12.596,4.627 1.759,0 3.363,-0.164 4.756,-0.486 7.708,-1.814 13.999,-5.891 18.699,-12.118 4.726,-6.267 7.122,-13.489 7.122,-21.466 0,-4.942 -1.072,-9.425 -3.171,-13.293 -2.419,-4.31 -5.516,-6.602 -9.44,-7.004 -0.59,-0.052 -1.164,-0.08 -1.706,-0.08 -4.524,0 -9.717,1.501 -9.717,13.211 l 0,13.158 -15.107,0 z M 77.726,-31.8 C 75.876,-9.04 64.634,5.066 44.28,10.225 c 5.483,2.153 11.819,3.24 18.924,3.24 L 63.996,13.46 C 74.455,13.343 82.942,9.995 89.943,3.229 c 6.924,-6.697 10.844,-15.338 11.648,-25.674 0.69,-9.431 -2.051,-17.484 -8.381,-24.62 -5.567,-6.277 -12.202,-9.403 -20.267,-9.542 3.916,7.195 5.524,15.534 4.783,24.807 m 24.039,45.161 C 91.269,23.345 78.332,28.225 63.411,27.831 49.453,27.484 37.111,23.858 26.67,17.045 24.483,22.606 19.367,27.942 7.786,27.942 c -0.997,0 -2.045,-0.039 -3.107,-0.116 -5.916,-0.414 -10.937,-2.888 -14.922,-7.353 -3.958,-4.434 -5.964,-9.724 -5.964,-15.723 0,-2.039 0.272,-4.16 0.81,-6.304 l 0.474,-1.892 15.353,0 -3.967,-3.993 -0.07,-0.075 c -8.709,-9.519 -14.051,-15.634 -16.331,-18.693 l -0.496,-0.665 0,-17.966 4.268,4.269 c 2.979,2.979 4.087,3.123 4.113,3.127 0.311,0 0.506,-0.032 0.615,-0.059 0.005,-0.041 0.009,-0.093 0.01,-0.156 -0.009,-0.124 -0.101,-0.904 -1.083,-4.078 -0.899,-2.898 -1.264,-5.303 -1.121,-7.288 0.274,-5.896 2.564,-11.001 6.807,-15.173 4.261,-4.196 9.612,-6.324 15.905,-6.324 10.33,0 17.449,2.299 21.252,6.846 3.582,-4.445 10.37,-6.743 20.278,-6.846 6.598,0 12.158,2.115 16.611,6.303 l 0,-5.933 2.307,-0.178 c 1.639,-0.127 3.311,-0.192 4.971,-0.192 12.431,0 22.724,4.321 30.595,12.84 7.799,8.442 11.948,19.283 12.331,32.21 0.511,15.375 -4.758,28.44 -15.66,38.831"
         style="fill:#ffffff;fill-opacity:1;fill-rule:nonzero;stroke:none"
         id="path4488" />
    </g>
    <text
       y="268.59433"
       x="55.862698"
       id="text4490"
       style="font-variant:normal;font-weight:normal;font-stretch:normal;font-size:15.875px;font-family:'Myriad Pro';-inkscape-font-specification:MyriadPro-Regular;writing-mode:lr-tb;fill:#000000;fill-opacity:1;fill-rule:nonzero;stroke:none;stroke-width:0.33072916">
      <tspan
         style="font-style:normal;font-variant:normal;font-weight:bold;font-stretch:normal;font-size:25.39999962px;font-family:'Droid Sans';-inkscape-font-specification:'Droid Sans Bold';fill:#000000;stroke-width:0.33072916"
         id="tspan4492"
         y="268.59433"
         x="55.862698">+</tspan>
    </text>
    <text
       y="267.82965"
       x="126.93277"
       id="text4490-9"
       style="font-variant:normal;font-weight:normal;font-stretch:normal;font-size:15.875px;font-family:'Myriad Pro';-inkscape-font-specification:MyriadPro-Regular;writing-mode:lr-tb;fill:#000000;fill-opacity:1;fill-rule:nonzero;stroke:none;stroke-width:0.33072916">
      <tspan
         style="font-style:normal;font-variant:normal;font-weight:bold;font-stretch:normal;font-size:25.39999962px;font-family:'Droid Sans';-inkscape-font-specification:'Droid Sans Bold';fill:#000000;stroke-width:0.33072916"
         id="tspan4492-4"
         y="267.82965"
         x="126.93277">=</tspan>
    </text>
  </g>
</svg>
